<svg width="137" height="127" fill="none" xmlns="http://www.w3.org/2000/svg"><path d="M0 63.547V32.292h6.046v31.255H0ZM12.531 63.547V32.292h13.76c1.431 0 2.751.302 3.964.902 1.213.6 2.258 1.395 3.133 2.376a11.192 11.192 0 0 1 2.058 3.344 10.11 10.11 0 0 1 .745 3.765c0 2.025-.505 3.867-1.513 5.523-1.007 1.66-2.373 2.854-4.097 3.588l7.097 11.754h-6.79l-6.353-10.477h-5.957v10.477h-6.046v.003Zm6.047-15.803h7.58c.554 0 1.074-.134 1.556-.398a3.998 3.998 0 0 0 1.25-1.079c.35-.455.627-.989.832-1.607a6.23 6.23 0 0 0 .306-1.98 5.72 5.72 0 0 0-.35-2.025 5.35 5.35 0 0 0-.941-1.607 4.297 4.297 0 0 0-1.357-1.056 3.518 3.518 0 0 0-1.556-.374h-7.32v10.126ZM41.672 63.547V32.292h6.046v25.926h15.864v5.326h-21.91v.003ZM67.26 63.547V32.292h6.047v31.255H67.26ZM104.985 32.098h-6.529l-4.403 6.636 3.13 4.52 7.802-11.156ZM104.506 63.257 90.845 43.57l-3.774-5.578-4.083-5.894h-6.572l11.085 15.849-10.735 15.405h6.575l7.403-11.182 7.363 11.182h6.528l-.066-.095h-.063ZM55.133 88.31c-1.28 0-2.395-.29-3.345-.868a6.243 6.243 0 0 1-2.23-2.291v9.446h-4.15V71.77h3.624v2.788a6.492 6.492 0 0 1 2.323-2.23c.97-.558 2.064-.836 3.282-.836 1.466 0 2.767.382 3.903 1.145 1.135.744 2.034 1.756 2.694 3.036.66 1.26.991 2.653.991 4.18 0 1.59-.31 3.025-.929 4.306-.599 1.26-1.435 2.27-2.508 3.035-1.053.743-2.272 1.115-3.655 1.115Zm-1.394-3.53c.847 0 1.58-.228 2.2-.682a4.773 4.773 0 0 0 1.486-1.828c.371-.763.557-1.569.557-2.415 0-.909-.196-1.724-.588-2.447a4.357 4.357 0 0 0-1.61-1.734c-.661-.434-1.425-.65-2.292-.65-.785 0-1.57.257-2.354.774-.785.516-1.311 1.166-1.58 1.95v3.81a5.67 5.67 0 0 0 1.704 2.292c.764.62 1.59.93 2.477.93Zm11.143-2.85V71.77h4.15v9.26c0 2.499.898 3.748 2.695 3.748.805 0 1.58-.237 2.322-.712.764-.496 1.384-1.24 1.859-2.23V71.77h4.15v11.583c0 .455.072.775.217.96.144.166.402.269.774.31V88a8.675 8.675 0 0 1-1.796.186c-.744 0-1.353-.165-1.828-.496-.454-.35-.722-.826-.805-1.424l-.093-1.301c-.722 1.115-1.652 1.951-2.787 2.508-1.136.558-2.385.837-3.748.837-1.672 0-2.942-.537-3.81-1.61-.866-1.095-1.3-2.685-1.3-4.77Zm28.53 6.38c-1.24 0-2.344-.279-3.315-.837a6.106 6.106 0 0 1-2.291-2.291V88h-3.624V65.391h4.15v9.23a6.5 6.5 0 0 1 2.26-2.292c.95-.558 2.055-.836 3.315-.836 1.404 0 2.632.392 3.685 1.177 1.074.763 1.91 1.785 2.509 3.066.599 1.28.898 2.684.898 4.212 0 1.569-.33 2.983-.991 4.243-.66 1.26-1.57 2.26-2.725 3.004-1.136.743-2.427 1.115-3.872 1.115Zm-1.147-3.53c.888 0 1.662-.218 2.323-.651a4.409 4.409 0 0 0 1.58-1.735 5.097 5.097 0 0 0 .588-2.415c0-.888-.186-1.704-.557-2.447-.351-.764-.847-1.373-1.487-1.827-.64-.455-1.373-.682-2.199-.682-.908 0-1.745.31-2.509.93a5.59 5.59 0 0 0-1.672 2.23v3.87c.269.806.795 1.467 1.58 1.983.784.495 1.569.743 2.353.743Z" fill="#fff"/><path fill="#fff" d="m29.498-46 116.131 168.79-4.795 3.3L24.704-42.7z"/></svg>