<svg xmlns="http://www.w3.org/2000/svg" xmlns:xlink="http://www.w3.org/1999/xlink"><symbol id="background-wave" viewBox="0 0 384 203"><g fill="none">
<path d="M80.5 136.243C5.5 124.743 -18 92.7434 -26 45.2434L-41 0.243414H535.5C544.667 -1.92325 470 45.2434 441 111.5C409.518 183.426 337.5 196.243 296 202.243C254.5 208.243 155.5 147.743 80.5 136.243Z" fill="#201F2E"/>
</g></symbol><symbol id="button-back" viewBox="0 0 15 24"><g fill="none">
<path d="M0.383924 11.0671L11.0016 0.386228C11.5135 -0.128743 12.3439 -0.128743 12.8558 0.386228L14.0943 1.63216C14.6056 2.14658 14.6062 2.97977 14.0965 3.49529L5.68155 11.9997L14.0959 20.5047C14.6062 21.0202 14.6051 21.8534 14.0937 22.3678L12.8552 23.6138C12.3433 24.1287 11.5129 24.1287 11.001 23.6138L0.383924 12.9324C-0.127974 12.4174 -0.127974 11.582 0.383924 11.0671Z" fill="#C4C1CF"/>
</g></symbol><symbol id="button-close" viewBox="0 0 24 24"><g fill="none">
<path d="M14.8173 11.9983L23.409 3.42536C23.7852 3.04906 23.9966 2.53869 23.9966 2.00653C23.9966 1.47437 23.7852 0.963996 23.409 0.587699C23.0327 0.211402 22.5224 0 21.9903 0C21.4583 0 20.948 0.211402 20.5717 0.587699L12 9.18062L3.42828 0.587699C3.05204 0.211402 2.54174 -3.96493e-09 2.00965 0C1.47757 3.96494e-09 0.967269 0.211402 0.591025 0.587699C0.214782 0.963996 0.00340991 1.47437 0.00340991 2.00653C0.0034099 2.53869 0.214782 3.04906 0.591025 3.42536L9.18272 11.9983L0.591025 20.5712C0.40375 20.757 0.255105 20.978 0.153666 21.2215C0.0522265 21.4651 0 21.7263 0 21.9901C0 22.2539 0.0522265 22.5151 0.153666 22.7586C0.255105 23.0021 0.40375 23.2231 0.591025 23.4089C0.776772 23.5962 0.99776 23.7449 1.24124 23.8463C1.48473 23.9478 1.74589 24 2.00965 24C2.27342 24 2.53458 23.9478 2.77807 23.8463C3.02155 23.7449 3.24254 23.5962 3.42828 23.4089L12 14.816L20.5717 23.4089C20.7575 23.5962 20.9785 23.7449 21.2219 23.8463C21.4654 23.9478 21.7266 24 21.9903 24C22.2541 24 22.5153 23.9478 22.7588 23.8463C23.0022 23.7449 23.2232 23.5962 23.409 23.4089C23.5962 23.2231 23.7449 23.0021 23.8463 22.7586C23.9478 22.5151 24 22.2539 24 21.9901C24 21.7263 23.9478 21.4651 23.8463 21.2215C23.7449 20.978 23.5962 20.757 23.409 20.5712L14.8173 11.9983Z" fill="#C4C1CF"/>
</g></symbol><symbol id="label" viewBox="0 0 20 33">
<path d="M18 0H2C1.46957 0 0.96086 0.210714 0.585787 0.585786C0.210715 0.960859 6.3813e-07 1.46957 6.3813e-07 2V29.93C-0.000315943 30.3264 0.117168 30.7139 0.337535 31.0434C0.557902 31.3729 0.871212 31.6295 1.23768 31.7806C1.60416 31.9317 2.00726 31.9705 2.39582 31.892C2.78438 31.8136 3.14086 31.6214 3.42 31.34L9.96 24.82L16.59 31.42C16.8703 31.6986 17.2268 31.8879 17.6146 31.9641C18.0024 32.0403 18.404 31.9998 18.7688 31.8479C19.1337 31.696 19.4453 31.4394 19.6644 31.1105C19.8835 30.7816 20.0003 30.3952 20 30V2C20 1.46957 19.7893 0.960859 19.4142 0.585786C19.0391 0.210714 18.5304 0 18 0Z"/>
</symbol><symbol id="search-icon" viewBox="0 0 24 24"><g fill="none">
<path d="M23.6736 20.7495L18.9998 16.0766C18.7889 15.8656 18.5029 15.7485 18.2029 15.7485H17.4388C18.7326 14.0939 19.5014 12.0129 19.5014 9.74905C19.5014 4.36364 15.137 0 9.75071 0C4.36438 0 0 4.36364 0 9.74905C0 15.1345 4.36438 19.4981 9.75071 19.4981C12.0149 19.4981 14.0963 18.7294 15.7512 17.4358V18.1998C15.7512 18.4998 15.8683 18.7857 16.0793 18.9966L20.7531 23.6696C21.1937 24.1101 21.9063 24.1101 22.3423 23.6696L23.6689 22.3431C24.1096 21.9025 24.1096 21.1901 23.6736 20.7495ZM9.75071 15.7485C6.43641 15.7485 3.75027 13.0675 3.75027 9.74905C3.75027 6.43531 6.43172 3.74963 9.75071 3.74963C13.065 3.74963 15.7512 6.43062 15.7512 9.74905C15.7512 13.0628 13.0697 15.7485 9.75071 15.7485Z" fill="#C4C1CF"/>
</g></symbol></svg>